<?xml version="1.0" encoding="utf-8"?>
<!-- Generator: Adobe Illustrator 25.3.1, SVG Export Plug-In . SVG Version: 6.00 Build 0)  -->
<svg version="1.1" id="圖層_1" xmlns="http://www.w3.org/2000/svg" xmlns:xlink="http://www.w3.org/1999/xlink" x="0px" y="0px"
	 viewBox="0 0 350 500" style="enable-background:new 0 0 350 500;" xml:space="preserve">
<style type="text/css">
	.st0{opacity:0.15;clip-path:url(#SVGID_2_);}
	.st1{fill:#FFFFFF;}
	.st2{opacity:0.5;}
</style>
<g>
	<defs>
		<rect id="SVGID_1_" width="350" height="500"/>
	</defs>
	<clipPath id="SVGID_2_">
		<use xlink:href="#SVGID_1_"  style="overflow:visible;"/>
	</clipPath>
	<g class="st0">
		<g>
			<path class="st1" d="M386.4,76.5c1.5,0,2.8,1.1,3,2.6l344.4,0c-0.2,0.3-0.5,0.5-0.7,0.8l-343.7,0c-0.2,1.5-1.4,2.6-3,2.6
				c-1.7,0-3-1.3-3-3C383.4,77.8,384.8,76.5,386.4,76.5z"/>
			<path class="st1" d="M197.2,63.8c0,7.8,6.3,14.1,14.1,14.1c7.6,0,13.7-6,14-13.5h110.9l24.5,26.3c-1.4,1.6-1.3,4.1,0.2,5.7
				c1.6,1.7,4.4,1.8,6.1,0.2c1.7-1.6,1.8-4.4,0.2-6.1c-1.5-1.6-3.9-1.8-5.6-0.6l-24.8-26.7H225.3c-0.3-7.5-6.5-13.5-14-13.5
				C203.5,49.7,197.2,56,197.2,63.8z M211.3,50.8c6.9,0,12.6,5.5,12.9,12.3h-2.6c-0.3-5.4-4.8-9.7-10.2-9.7
				c-5.7,0-10.3,4.6-10.3,10.3c0,5.7,4.6,10.3,10.3,10.3c5.5,0,9.9-4.3,10.2-9.7h2.6c-0.3,6.9-6,12.3-12.9,12.3
				c-7.1,0-12.9-5.8-12.9-12.9C198.4,56.6,204.2,50.8,211.3,50.8z"/>
			<path class="st1" d="M295.1,270.2c-6.9,11.1,0.9,22.7,11.4,22.7c7.6,0,13.7-6,14-13.5l36.3,0l24.5,26.3c-1.4,1.6-1.3,4.1,0.2,5.7
				c2.3,2.5,6.9,1.6,7.6-2.8c-0.4-4.2-4.4-5.4-7-3.7l-24.8-26.7h-36.8c-0.4-10.2-11.7-17.6-22.6-10.9
				C296.8,268.1,295.8,269.1,295.1,270.2z M306.5,265.9c6.9,0,12.6,5.5,12.9,12.3h-2.6c-0.3-5.4-4.8-9.7-10.2-9.7
				c-7.7,0-13.5,8.6-8.3,16.7c0.5,0.7,1.1,1.4,1.8,1.8c7.9,5.1,16.2-0.3,16.7-7.7l2.6,0c-0.4,9.4-10.8,16.2-20.8,9.9
				c-1-0.6-1.9-1.5-2.5-2.5C289.7,276.6,296.9,265.9,306.5,265.9z M315.6,279.4c-0.3,4.8-4.3,8.5-9.1,8.5c-7,0-12.1-7.8-7.1-15.1
				c0.3-0.4,0.7-0.8,1.1-1.1c7.1-4.8,14.7-0.1,15.1,6.6H309c-0.3-1.1-1.3-2-2.5-2c-2,0-3.5,2.3-1.9,4.4c1.9,1.5,4,0.4,4.4-1.3
				L315.6,279.4z"/>
			<g>
				<g>
					<path class="st1" d="M117.5,471.4c1,0,1.9,0.8,1.9,1.9c0,1-0.8,1.9-1.9,1.9c-1,0-1.9-0.8-1.9-1.9
						C115.6,472.3,116.4,471.4,117.5,471.4z"/>
					<path class="st1" d="M129.4,471.4c1,0,1.9,0.8,1.9,1.9c0,1-0.8,1.9-1.9,1.9c-1,0-1.9-0.8-1.9-1.9
						C127.5,472.3,128.3,471.4,129.4,471.4z"/>
					<path class="st1" d="M141.2,471.4c1,0,1.9,0.8,1.9,1.9c0,1-0.8,1.9-1.9,1.9c-1,0-1.9-0.8-1.9-1.9
						C139.4,472.3,140.2,471.4,141.2,471.4z"/>
					<path class="st1" d="M153.1,471.4c1,0,1.9,0.8,1.9,1.9c0,1-0.8,1.9-1.9,1.9c-1,0-1.9-0.8-1.9-1.9
						C151.3,472.3,152.1,471.4,153.1,471.4z"/>
				</g>
				<g>
					<path class="st1" d="M109.9,466h88.9v14.7l-88.9,0V466z M197.6,467.2H111v12.4h86.6V467.2z"/>
				</g>
			</g>
			<path class="st1" d="M605.2,163.7c-2,0-3.6-1.5-3.8-3.4l-26.4,0L453.6,39l-413-3.9c-0.1,0.6-0.4,1.1-0.8,1.6
				c-1.1,1.1-3,1.1-4.1,0c-1.1-1.1-1.1-3,0-4.1c1.1-1.1,3-1.1,4.1,0c0.4,0.4,0.7,1,0.8,1.6l413,3.9l0.3-0.1l121.5,121.5l26,0
				c0.3-1.9,1.9-3.4,3.8-3.4c2.1,0,3.9,1.7,3.9,3.9C609.1,162,607.3,163.7,605.2,163.7z"/>
			<path class="st1" d="M121.4,439.2c1.5,0,2.8,1.1,3,2.6l187.2,0c0,0.3,0,0.5,0,0.8v0l-187.2,0c-0.2,1.5-1.4,2.6-3,2.6
				c-1.7,0-3-1.3-3-3C118.4,440.6,119.7,439.2,121.4,439.2z"/>
			<path class="st1" d="M702.5,346.4c-2,0-3.6,1.5-3.8,3.4h-26.4L550.9,471.1l-333.4,3.9c-0.1-0.6-0.4-1.1-0.8-1.6
				c-1.1-1.1-3-1.1-4.1,0c-1.1,1.1-1.1,3,0,4.1c1.1,1.1,3,1.1,4.1,0c0.4-0.4,0.7-1,0.8-1.6l333.4-3.9l0.3,0.1l121.5-121.5h26
				c0.3,1.9,1.9,3.4,3.8,3.4c2.1,0,3.9-1.7,3.9-3.9C706.3,348.2,704.6,346.4,702.5,346.4z"/>
			<path class="st1" d="M307.3,46.8c-0.9-0.9-1.1-2.4-0.5-3.5L282.5,19L7.1,19c-0.2,1.5-1.4,2.6-3,2.6c-1.7,0-3-1.3-3-3
				c0-1.7,1.3-3,3-3c1.5,0,2.8,1.1,3,2.6l275.6,0l0.2,0l24.5,24.5c1.1-1.1,3-1.1,4.1,0c1.1,1.1,1.1,3,0,4.1
				C310.3,48,308.5,48,307.3,46.8z"/>
			<path class="st1" d="M259.3,483.5c-0.9-0.9-1.1-2.4-0.5-3.5l-24.3-24.3l-223.8,0c-0.2,1.5-1.4,2.6-3,2.6c-1.7,0-3-1.3-3-3
				c0-1.7,1.3-3,3-3c1.5,0,2.8,1.1,3,2.6l223.9,0l0.2,0l24.5,24.5c1.1-1.1,3-1.1,4.1,0c1.1,1.1,1.1,3,0,4.1
				C262.3,484.7,260.4,484.7,259.3,483.5z"/>
		</g>
		<g>
			<path class="st1" d="M84.5,52.4c0,4.1,3.4,7.5,7.5,7.5c1.8,0,3.4-0.7,4.7-1.7L122,83.4c0.2,0.2,0.4,0.2,0.6,0.2h186.6l65.1,65.1
				c0.2,0.2,0.4,0.2,0.6,0.2h42.3c0.5,3.6,3.6,6.5,7.4,6.5c4.1,0,7.5-3.4,7.5-7.5c0-4.1-3.4-7.5-7.5-7.5c-3.9,0-7.1,3-7.4,6.8h-41.9
				l-65.1-65.1c-0.2-0.2-0.4-0.2-0.6-0.2H123l-25-25c1-1.3,1.6-2.8,1.6-4.5c0-4.1-3.4-7.5-7.5-7.5C87.9,44.9,84.5,48.2,84.5,52.4z
				 M418.9,149c0.3-0.1,0.6-0.4,0.6-0.8c0-0.4-0.3-0.7-0.6-0.8c0.3-2.9,2.7-5.2,5.7-5.2c3.2,0,5.8,2.6,5.8,5.8
				c0,3.2-2.6,5.8-5.8,5.8C421.8,153.8,419.4,151.7,418.9,149z M86.2,52.4c0-3.2,2.6-5.8,5.8-5.8c3.2,0,5.8,2.6,5.8,5.8
				c0,1.4-0.5,2.7-1.4,3.7c-0.1,0-0.2,0.1-0.3,0.2c-0.1,0.1-0.2,0.2-0.2,0.4c-1,0.9-2.4,1.5-3.9,1.5C88.8,58.1,86.2,55.5,86.2,52.4z
				"/>
			<path class="st1" d="M231.6,110.3c0,4.1,3.4,7.5,7.5,7.5c3.9,0,7.1-3,7.4-6.8h52.9l69.9,69.9c0.2,0.2,0.4,0.2,0.6,0.2h18.8
				c0.7,3.4,3.7,5.9,7.3,5.9c4.1,0,7.5-3.4,7.5-7.5c0-4.1-3.4-7.5-7.5-7.5c-4.1,0-7.4,3.3-7.5,7.4h-18.3l-69.9-69.9
				c-0.2-0.2-0.4-0.2-0.6-0.2h-53.3c-0.5-3.7-3.6-6.5-7.4-6.5C234.9,102.8,231.6,106.2,231.6,110.3z M390.5,181
				c0.2-0.2,0.3-0.4,0.3-0.7c0-0.4-0.2-0.7-0.5-0.8c0-3.2,2.6-5.7,5.8-5.7c3.2,0,5.8,2.6,5.8,5.8s-2.6,5.8-5.8,5.8
				C393.4,185.3,391.1,183.5,390.5,181z M233.3,110.3c0-3.2,2.6-5.8,5.8-5.8c3,0,5.5,2.3,5.7,5.2c-0.1,0.1-0.1,0.2-0.1,0.4
				c0,0.2,0.1,0.3,0.1,0.4c-0.1,3.1-2.7,5.5-5.8,5.5C235.9,116.1,233.3,113.5,233.3,110.3z"/>
			<path class="st1" d="M278.8,309.6c0,4.1,3.4,7.5,7.5,7.5c4.1,0,7.5-3.4,7.5-7.5c0-0.1,0-0.3,0-0.4c0,0,0.1,0,0.1,0h57.1
				l18.8,18.8c0.2,0.2,0.4,0.2,0.6,0.2h71.3c1.1,2.8,3.8,4.9,7,4.9c4.1,0,7.5-3.4,7.5-7.5c0-4.1-3.4-7.5-7.5-7.5
				c-4.1,0-7.5,3.4-7.5,7.5c0,0.3,0.1,0.6,0.1,0.9h-70.6l-18.8-18.8c-0.2-0.2-0.4-0.2-0.6-0.2h-57.4c-0.1,0-0.3,0-0.4,0.1
				c-0.9-3.2-3.8-5.5-7.2-5.5C282.1,302.1,278.8,305.5,278.8,309.6z M443.5,328.2c0.3-0.1,0.2-1.7-0.2-1.7h-0.3
				c0-0.3-0.1-0.6-0.1-0.9c0-3.2,2.6-5.8,5.8-5.8c3.2,0,5.8,2.6,5.8,5.8c0,3.2-2.6,5.8-5.8,5.8C446.4,331.4,444.4,330.1,443.5,328.2
				z M280.5,309.6c0-3.2,2.6-5.8,5.8-5.8c3.2,0,5.8,2.6,5.8,5.8c0,3.2-2.6,5.8-5.8,5.8C283.1,315.4,280.5,312.8,280.5,309.6z"/>
			<path class="st1" d="M148,431.4c0,4.1,3.4,7.5,7.5,7.5c3.8,0,7-2.9,7.4-6.6h122.8c0.2,0,0.4-0.1,0.6-0.2l88.3-88.3h159.2
				l28.7,28.7c-1.2,1.3-2,3.1-2,5c0,4.1,3.4,7.5,7.5,7.5c4.1,0,7.5-3.4,7.5-7.5c0-4.1-3.4-7.5-7.5-7.5c-1.6,0-3,0.5-4.3,1.3l-29-29
				c-0.2-0.2-0.4-0.2-0.6-0.2H374.4c-0.2,0-0.4,0.1-0.6,0.2l-88.3,88.3H162.9c-0.4-3.7-3.6-6.6-7.4-6.6
				C151.4,423.9,148,427.2,148,431.4z M562.3,377.4c0-1.6,0.6-3,1.6-4c0.2,0,0.4-0.1,0.6-0.2c0.1-0.1,0.2-0.3,0.2-0.5
				c0.9-0.7,2.1-1.1,3.3-1.1c3.2,0,5.8,2.6,5.8,5.8c0,3.2-2.6,5.8-5.8,5.8C564.9,383.2,562.3,380.6,562.3,377.4z M149.7,431.4
				c0-3.2,2.6-5.8,5.8-5.8c2.9,0,5.3,2.2,5.7,4.9h-0.3c-0.5,0-0.9,0.4-0.9,0.9c0,0.5,0.4,0.9,0.9,0.9h0.3c-0.4,2.8-2.8,4.9-5.7,4.9
				C152.3,437.2,149.7,434.6,149.7,431.4z"/>
			<g>
				<path class="st1" d="M112.5,367.6c0,5.8-4.7,10.6-10.6,10.6c-5.8,0-10.6-4.7-10.6-10.6c0-5.8,4.7-10.6,10.6-10.6
					C107.8,357.1,112.5,361.8,112.5,367.6z M107.4,367.6c0-3-2.5-5.5-5.5-5.5c-3,0-5.5,2.5-5.5,5.5c0,3,0.7,5.5,3.8,5.5
					C103.3,373.1,107.4,370.7,107.4,367.6z"/>
			</g>
			<g>
				<rect x="143.1" y="61.8" class="st1" width="2.3" height="8.8"/>
				<rect x="147.8" y="61.8" class="st1" width="2.3" height="8.8"/>
				<rect x="152.5" y="61.8" class="st1" width="2.3" height="8.8"/>
				<rect x="157.1" y="61.8" class="st1" width="2.3" height="8.8"/>
				<rect x="161.8" y="61.8" class="st1" width="2.3" height="8.8"/>
				<rect x="166.5" y="61.8" class="st1" width="2.3" height="8.8"/>
				<rect x="171.2" y="61.8" class="st1" width="2.3" height="8.8"/>
				<polygon class="st1" points="131.2,75 131.2,55.5 131.8,55 131.8,74.5 179.4,74.5 179.4,50.6 136.1,50.6 136.6,50.1 180,50.1 
					180,75 				"/>
			</g>
		</g>
		<g class="st2">
			<path class="st1" d="M319.9,400.5c7.9,0,14.4,6.5,14.4,14.5c0,8-6.4,14.5-14.4,14.5c-7.9,0-14.4-6.5-14.4-14.5
				C305.6,407,312,400.5,319.9,400.5z M319.9,428.5c7.4,0,13.5-6.1,13.5-13.6c0-7.5-6-13.6-13.5-13.6s-13.5,6.1-13.5,13.6
				C306.4,422.4,312.5,428.5,319.9,428.5z"/>
		</g>
		<g>
			<g class="st2">
				<polygon class="st1" points="314.6,128.2 315.3,128.9 359.8,84 359.1,83.3 				"/>
			</g>
			<g class="st2">
				<path class="st1" d="M313.4,97.5c2.2,0,3.9,1.8,3.9,3.9c0,2.2-1.8,3.9-3.9,3.9s-3.9-1.8-3.9-3.9
					C309.5,99.2,311.2,97.5,313.4,97.5z M313.4,98.3c-1.7,0-3,1.4-3,3.1c0,1.7,1.4,3.1,3,3.1s3-1.4,3-3.1
					C316.4,99.7,315.1,98.3,313.4,98.3z"/>
			</g>
		</g>
	</g>
</g>
</svg>
