<?xml version="1.0" encoding="utf-8"?>
<!-- Generator: Adobe Illustrator 25.3.1, SVG Export Plug-In . SVG Version: 6.00 Build 0)  -->
<svg version="1.1" id="圖層_1" xmlns="http://www.w3.org/2000/svg" xmlns:xlink="http://www.w3.org/1999/xlink" x="0px" y="0px"
	 viewBox="0 0 200 500" style="enable-background:new 0 0 200 500;" xml:space="preserve">
<style type="text/css">
	.st0{opacity:0.25;clip-path:url(#SVGID_2_);}
	.st1{fill:#FFFFFF;}
	.st2{opacity:0.5;}
</style>
<g>
	<defs>
		<rect id="SVGID_1_" width="200" height="500"/>
	</defs>
	<clipPath id="SVGID_2_">
		<use xlink:href="#SVGID_1_"  style="overflow:visible;"/>
	</clipPath>
	<g class="st0">
		<g>
			<path class="st1" d="M47.3,268.2c-1.3,0-2.3,0.9-2.5,2.2l-287,0c0.2,0.2,0.4,0.4,0.6,0.7l286.4,0c0.2,1.2,1.2,2.2,2.5,2.2
				c1.4,0,2.5-1.1,2.5-2.5C49.8,269.3,48.7,268.2,47.3,268.2z"/>
			<path class="st1" d="M69.6,83.1c-6.3,0-11.4,5-11.7,11.2H-35l-20.7,22.2c-1.4-1-3.5-0.9-4.7,0.5c-1.4,1.5-1.3,3.7,0.2,5.1
				c1.5,1.4,3.7,1.3,5.1-0.2c1.2-1.3,1.3-3.4,0.1-4.7l20.4-21.9h92.4c0.3,6.2,5.4,11.2,11.7,11.2c6.5,0,11.7-5.3,11.7-11.7
				C81.3,88.3,76,83.1,69.6,83.1z M80.3,94.8c0,5.9-4.8,10.8-10.8,10.8c-5.8,0-10.5-4.6-10.7-10.3h2.2c0.3,4.5,4,8.1,8.5,8.1
				c4.7,0,8.6-3.8,8.6-8.6c0-4.7-3.8-8.6-8.6-8.6c-4.6,0-8.3,3.6-8.5,8.1h-2.2c0.3-5.7,5-10.3,10.7-10.3
				C75.5,84,80.3,88.9,80.3,94.8z"/>
			<path class="st1" d="M177.2,432.7c-9.1-5.6-18.5,0.6-18.8,9.1h-20.2L117.5,464c-2.1-1.5-5.4-0.5-5.8,3c0.6,3.7,4.4,4.4,6.4,2.3
				c1.2-1.3,1.3-3.4,0.1-4.7l20.4-21.9l19.8,0c0.3,6.2,5.4,11.2,11.7,11.2c8.8,0,15.3-9.7,9.5-18.9
				C179,434.1,178.1,433.3,177.2,432.7z M178.8,448.9c-0.5,0.8-1.3,1.6-2.1,2.1c-8.3,5.2-17-0.5-17.4-8.3l2.2,0
				c0.3,6.2,7.3,10.6,13.9,6.4c0.6-0.4,1.1-0.9,1.5-1.5c4.4-6.8-0.4-13.9-6.9-13.9c-4.6,0-8.3,3.6-8.5,8.1h-2.2
				c0.3-5.7,5-10.3,10.7-10.3C178.1,431.5,184.1,440.4,178.8,448.9z M168,442.8c0.3,1.4,2,2.3,3.6,1.1c1.3-1.8,0.1-3.7-1.6-3.7
				c-1,0-1.9,0.7-2.1,1.7h-5.5c0.3-5.5,6.6-9.5,12.6-5.5c0.4,0.2,0.7,0.6,0.9,0.9c4.2,6.1-0.1,12.6-5.9,12.6c-4,0-7.3-3.2-7.6-7.1
				L168,442.8z"/>
			<g>
				<rect x="77.4" y="448.3" class="st1" width="3.1" height="11.7"/>
				<rect x="71.2" y="448.3" class="st1" width="3.1" height="11.7"/>
				<rect x="64.9" y="448.3" class="st1" width="3.1" height="11.7"/>
				<rect x="58.7" y="448.3" class="st1" width="3.1" height="11.7"/>
				<rect x="52.5" y="448.3" class="st1" width="3.1" height="11.7"/>
				<rect x="46.2" y="448.3" class="st1" width="3.1" height="11.7"/>
				<rect x="40" y="448.3" class="st1" width="3.1" height="11.7"/>
				<polygon class="st1" points="96.3,465.9 96.3,439.4 95.7,438.7 95.7,465.2 32,465.2 32,433 89.9,433 89.2,432.3 31.4,432.3 
					31.4,465.9 				"/>
			</g>
			<g>
				<g>
					<path class="st1" d="M67.8,363.5c-0.9,0-1.6,0.7-1.6,1.6c0,0.9,0.7,1.6,1.6,1.6c0.9,0,1.6-0.7,1.6-1.6
						C69.4,364.2,68.7,363.5,67.8,363.5z"/>
					<path class="st1" d="M57.9,363.5c-0.9,0-1.6,0.7-1.6,1.6c0,0.9,0.7,1.6,1.6,1.6c0.9,0,1.6-0.7,1.6-1.6
						C59.4,364.2,58.7,363.5,57.9,363.5z"/>
					<path class="st1" d="M48,363.5c-0.9,0-1.6,0.7-1.6,1.6c0,0.9,0.7,1.6,1.6,1.6c0.9,0,1.6-0.7,1.6-1.6
						C49.5,364.2,48.8,363.5,48,363.5z"/>
					<path class="st1" d="M38.1,363.5c-0.9,0-1.6,0.7-1.6,1.6c0,0.9,0.7,1.6,1.6,1.6c0.9,0,1.6-0.7,1.6-1.6
						C39.6,364.2,38.9,363.5,38.1,363.5z"/>
				</g>
				<g>
					<path class="st1" d="M74.1,371.2l-74.1,0v-12.3h74.1V371.2z M1,370.3h72.2v-10.4H1V370.3z"/>
				</g>
			</g>
			<path class="st1" d="M-318.6,178.1c1.6,0,3-1.2,3.2-2.8l22,0l101.1-101.1l344.2-3.3c0.1,0.5,0.3,0.9,0.7,1.3
				c0.9,0.9,2.5,0.9,3.4,0c0.9-0.9,0.9-2.5,0-3.4c-0.9-0.9-2.5-0.9-3.4,0c-0.4,0.4-0.6,0.8-0.7,1.3l-344.2,3.2l-0.2-0.1
				l-101.2,101.2l-21.7,0c-0.2-1.6-1.6-2.8-3.2-2.8c-1.8,0-3.2,1.4-3.2,3.2C-321.8,176.6-320.4,178.1-318.6,178.1z"/>
			<path class="st1" d="M84.6,407.7c-1.3,0-2.3,0.9-2.5,2.2l-156,0c0,0.2,0,0.4,0,0.6v0l156,0c0.2,1.2,1.2,2.2,2.5,2.2
				c1.4,0,2.5-1.1,2.5-2.5C87.1,408.8,86,407.7,84.6,407.7z"/>
			<path class="st1" d="M-399.6,330.3c1.6,0,3,1.2,3.2,2.8h22l101.1,101.1l277.8,3.3c0.1-0.5,0.3-0.9,0.7-1.3c0.9-0.9,2.5-0.9,3.4,0
				c0.9,0.9,0.9,2.5,0,3.4c-0.9,0.9-2.5,0.9-3.4,0c-0.4-0.4-0.6-0.8-0.7-1.3l-277.8-3.2l-0.2,0.1L-374.8,334h-21.7
				c-0.2,1.6-1.6,2.8-3.2,2.8c-1.8,0-3.2-1.4-3.2-3.2C-402.9,331.8-401.4,330.3-399.6,330.3z"/>
			<path class="st1" d="M35.1,80.7c0.8-0.8,0.9-2,0.4-2.9l20.3-20.3l135,0c0.2,1.2,1.2,2.2,2.5,2.2c1.4,0,2.5-1.1,2.5-2.5
				c0-1.4-1.1-2.5-2.5-2.5c-1.3,0-2.3,0.9-2.5,2.2l-135.1,0l-0.1,0L35.1,77.3c-0.9-0.9-2.5-0.9-3.4,0c-0.9,0.9-0.9,2.5,0,3.4
				C32.6,81.6,34.2,81.6,35.1,80.7z"/>
			<path class="st1" d="M-30.3,444.6c0.8-0.8,0.9-2,0.4-2.9l20.3-20.3l186.5,0c0.2,1.2,1.2,2.2,2.5,2.2c1.4,0,2.5-1.1,2.5-2.5
				c0-1.4-1.1-2.5-2.5-2.5c-1.3,0-2.3,0.9-2.5,2.2l-186.6,0l-0.1,0l-20.4,20.4c-0.9-0.9-2.5-0.9-3.4,0c-0.9,0.9-0.9,2.5,0,3.4
				C-32.8,445.5-31.3,445.5-30.3,444.6z"/>
		</g>
		<g>
			<path class="st1" d="M116.6,86.6c-3.4,0-6.2,2.8-6.2,6.2c0,1.4,0.5,2.7,1.3,3.8l-20.9,20.9H-64.6c-0.2,0-0.4,0.1-0.5,0.2
				l-54.3,54.3h-34.9c-0.3-3.2-2.9-5.7-6.2-5.7c-3.4,0-6.2,2.8-6.2,6.2c0,3.4,2.8,6.2,6.2,6.2c3.1,0,5.7-2.4,6.2-5.4h35.3
				c0.2,0,0.4-0.1,0.5-0.2l54.3-54.3H91.1c0.2,0,0.4-0.1,0.5-0.2l21.1-21.1c1.1,0.9,2.4,1.4,3.9,1.4c3.4,0,6.2-2.8,6.2-6.2
				C122.9,89.4,120.1,86.6,116.6,86.6z M-160.5,177.4c-2.7,0-4.8-2.2-4.8-4.8c0-2.7,2.2-4.8,4.8-4.8c2.5,0,4.5,1.9,4.8,4.3
				c-0.3,0.1-0.5,0.3-0.5,0.7c0,0.3,0.2,0.6,0.5,0.7C-156.2,175.7-158.1,177.4-160.5,177.4z M116.6,97.7c-1.2,0-2.4-0.5-3.2-1.3
				c0-0.1-0.1-0.2-0.2-0.3c-0.1-0.1-0.2-0.1-0.3-0.2c-0.7-0.8-1.2-1.9-1.2-3.1c0-2.7,2.2-4.8,4.8-4.8s4.8,2.2,4.8,4.8
				S119.3,97.7,116.6,97.7z"/>
			<g>
				<g>
					<path class="st1" d="M-2.8,154.9H80c0.4,0,0.7,0.3,0.7,0.7c0,0.4-0.3,0.7-0.7,0.7H-2.5l-22.3,22.3c-0.1,0.1-0.3,0.2-0.5,0.2
						h-23.5c-0.4,0-0.7-0.3-0.7-0.7c0-0.4,0.3-0.7,0.7-0.7h23.2l22.3-22.3C-3.2,155-3,154.9-2.8,154.9z"/>
				</g>
				<g>
					<path class="st1" d="M8.2,171.8h72c0.4,0,0.7,0.3,0.7,0.7c0,0.4-0.3,0.7-0.7,0.7H8.4l-20.5,20.5c-0.3,0.3-0.7,0.3-1,0
						c-0.3-0.3-0.3-0.7,0-1L7.6,172C7.8,171.8,8,171.8,8.2,171.8z"/>
				</g>
				<g>
					<path class="st1" d="M-16.2,190.7c3.4,0,6.2,2.8,6.2,6.2c0,3.4-2.8,6.2-6.2,6.2c-3.4,0-6.2-2.8-6.2-6.2
						C-22.4,193.5-19.6,190.7-16.2,190.7z M-16.2,201.7c2.7,0,4.8-2.2,4.8-4.8c0-2.7-2.2-4.8-4.8-4.8c-2.7,0-4.8,2.2-4.8,4.8
						C-21,199.6-18.8,201.7-16.2,201.7z"/>
				</g>
				<g>
					<path class="st1" d="M-54.2,172.5c3.4,0,6.2,2.8,6.2,6.2c0,3.4-2.8,6.2-6.2,6.2c-3.4,0-6.2-2.8-6.2-6.2
						C-60.5,175.3-57.7,172.5-54.2,172.5z M-54.2,183.6c2.7,0,4.8-2.2,4.8-4.8c0-2.7-2.2-4.8-4.8-4.8c-2.7,0-4.8,2.2-4.8,4.8
						C-59,181.4-56.9,183.6-54.2,183.6z"/>
				</g>
				<g>
					<path class="st1" d="M85.7,166.2c3.4,0,6.2,2.8,6.2,6.2c0,3.4-2.8,6.2-6.2,6.2c-3.4,0-6.2-2.8-6.2-6.2
						C79.5,169,82.3,166.2,85.7,166.2z M85.7,177.3c2.7,0,4.8-2.2,4.8-4.8c0-2.7-2.2-4.8-4.8-4.8c-2.7,0-4.8,2.2-4.8,4.8
						C80.9,175.1,83.1,177.3,85.7,177.3z"/>
				</g>
				<g>
					<path class="st1" d="M85.6,149.4c3.4,0,6.2,2.8,6.2,6.2c0,3.4-2.8,6.2-6.2,6.2c-3.4,0-6.2-2.8-6.2-6.2
						C79.3,152.2,82.1,149.4,85.6,149.4z M85.6,160.4c2.7,0,4.8-2.2,4.8-4.8c0-2.7-2.2-4.8-4.8-4.8c-2.7,0-4.8,2.2-4.8,4.8
						C80.7,158.3,82.9,160.4,85.6,160.4z"/>
				</g>
			</g>
			<path class="st1" d="M101.5,128.4c-3.2,0-5.7,2.4-6.2,5.4H-38c-0.2,0-0.4,0.1-0.5,0.2l-58.3,58.2H-112c-0.1-3.4-2.8-6.2-6.2-6.2
				c-3.4,0-6.2,2.8-6.2,6.2c0,3.4,2.8,6.2,6.2,6.2c3,0,5.5-2.1,6.1-4.9h15.7c0.2,0,0.4-0.1,0.5-0.2l58.3-58.2H95.3
				c0.3,3.2,2.9,5.7,6.2,5.7c3.4,0,6.2-2.8,6.2-6.2C107.8,131.2,105,128.4,101.5,128.4z M-118.3,197.2c-2.7,0-4.8-2.2-4.8-4.8
				c0-2.7,2.2-4.8,4.8-4.8c2.6,0,4.8,2.1,4.8,4.8c-0.3,0.1-0.4,0.4-0.4,0.7c0,0.2,0.1,0.4,0.3,0.5
				C-114.1,195.6-116,197.2-118.3,197.2z M101.5,139.5c-2.6,0-4.7-2-4.8-4.6c0.1-0.1,0.1-0.2,0.1-0.4c0-0.1,0-0.2-0.1-0.3
				c0.2-2.4,2.3-4.4,4.8-4.4c2.7,0,4.8,2.2,4.8,4.8C106.4,137.3,104.2,139.5,101.5,139.5z"/>
			<path class="st1" d="M76.9,293.4c-2.9,0-5.3,1.9-6,4.6c-0.1,0-0.2-0.1-0.3-0.1H22.7c-0.2,0-0.4,0.1-0.5,0.2L6.5,313.8h-58.8
				c0-0.3,0.1-0.5,0.1-0.8c0-3.4-2.8-6.2-6.2-6.2c-3.4,0-6.2,2.8-6.2,6.2c0,3.4,2.8,6.2,6.2,6.2c2.7,0,4.9-1.7,5.8-4.1H6.8
				c0.2,0,0.4-0.1,0.5-0.2L23,299.3h47.6c0,0,0.1,0,0.1,0c0,0.1,0,0.2,0,0.3c0,3.4,2.8,6.2,6.2,6.2c3.4,0,6.2-2.8,6.2-6.2
				C83.1,296.2,80.3,293.4,76.9,293.4z M-58.4,317.9c-2.7,0-4.8-2.2-4.8-4.8c0-2.7,2.2-4.8,4.8-4.8c2.7,0,4.8,2.2,4.8,4.8
				c0,0.3,0,0.5-0.1,0.8h-0.2c-0.4,0-0.5,1.3-0.2,1.4C-54.9,316.8-56.6,317.9-58.4,317.9z M76.9,304.5c-2.7,0-4.8-2.2-4.8-4.8
				c0-2.7,2.2-4.8,4.8-4.8s4.8,2.2,4.8,4.8C81.7,302.3,79.5,304.5,76.9,304.5z"/>
			<g>
				<path class="st1" d="M79.1,194.9c-3.4,0-6.2,2.8-6.2,6.2c0,1.5,0.6,2.9,1.5,4l-23,23h-48L-16,208.7c-0.1-0.1-0.3-0.2-0.5-0.2
					h-156.7c-0.2,0-0.4,0.1-0.5,0.2l-56.6,56.6h-76.9l-16.7-16.7c0.9-1.1,1.4-2.4,1.4-3.9c0-3.4-2.8-6.2-6.2-6.2
					c-3.4,0-6.2,2.8-6.2,6.2s2.8,6.2,6.2,6.2c1.4,0,2.7-0.5,3.8-1.3l16.9,16.9c0.1,0.1,0.3,0.2,0.5,0.2h77.4c0.2,0,0.4-0.1,0.5-0.2
					l56.6-56.6h156.2l19.4,19.4c0.1,0.1,0.3,0.2,0.5,0.2h48.6c0.2,0,0.4-0.1,0.5-0.2l23.2-23.2c1.1,0.8,2.4,1.3,3.8,1.3
					c3.4,0,6.2-2.8,6.2-6.2C85.4,197.7,82.6,194.9,79.1,194.9z M-333.6,244.6c0-2.7,2.2-4.8,4.8-4.8s4.8,2.2,4.8,4.8
					c0,1.2-0.5,2.3-1.2,3.2c-0.1,0-0.3,0.1-0.4,0.2c-0.1,0.1-0.2,0.2-0.2,0.4c-0.8,0.7-1.9,1.1-3,1.1
					C-331.4,249.5-333.6,247.3-333.6,244.6z M79.1,205.9c-1.1,0-2.1-0.4-2.9-1c0-0.2,0-0.4-0.2-0.6c-0.1-0.1-0.3-0.2-0.5-0.2
					c0,0-0.1,0-0.1,0c-0.7-0.8-1.1-1.9-1.1-3.1c0-2.7,2.2-4.8,4.8-4.8c2.7,0,4.8,2.2,4.8,4.8C84,203.8,81.8,205.9,79.1,205.9z"/>
				<path class="st1" d="M68.8,241c-3.2,0-5.8,2.4-6.2,5.5H-6.5l-24.5-24.6c-0.1-0.1-0.3-0.2-0.5-0.2h-96.8c-0.2,0-0.4,0.1-0.5,0.2
					l-55.8,55.8h-124.6c-0.2,0-0.4,0.1-0.5,0.2l-35.3,35.3c-1-0.8-2.3-1.2-3.7-1.2c-3.4,0-6.2,2.8-6.2,6.2c0,3.4,2.8,6.2,6.2,6.2
					c3.4,0,6.2-2.8,6.2-6.2c0-1.6-0.6-3-1.5-4.1l35.1-35.1h124.6c0.2,0,0.4-0.1,0.5-0.2l55.8-55.8h96.2l24.5,24.6
					c0.1,0.1,0.3,0.2,0.5,0.2h69.5c0.4,3.1,3,5.5,6.2,5.5c3.4,0,6.2-2.8,6.2-6.2C75.1,243.8,72.3,241,68.8,241z M-348.8,323.1
					c-2.7,0-4.8-2.2-4.8-4.8c0-2.7,2.2-4.8,4.8-4.8c1,0,1.9,0.3,2.7,0.8c-0.1,0.3-0.1,0.6,0.1,0.8c0.2,0.2,0.6,0.3,0.8,0.1
					c0.7,0.8,1.2,1.9,1.2,3.1C-344,321-346.1,323.1-348.8,323.1z M68.8,252c-2.4,0-4.4-1.8-4.8-4.1h0.3c0.4,0,0.7-0.3,0.7-0.7
					c0-0.4-0.3-0.7-0.7-0.7h-0.3c0.3-2.3,2.3-4.1,4.8-4.1c2.7,0,4.8,2.2,4.8,4.8C73.6,249.9,71.5,252,68.8,252z"/>
			</g>
			<path class="st1" d="M95.2,345.9H62.8L45,328.1c-0.4-0.4-0.9-0.6-1.5-0.6H-90.4l-21.7-21.7c-0.4-0.4-0.9-0.6-1.5-0.6H-264
				c-0.6,0-1.1,0.2-1.5,0.6l-50.5,50.5c-0.2,0.2-0.4,0.5-0.5,0.8c-1.1-1-2.6-1.6-4.2-1.6c-3.4,0-6.2,2.8-6.2,6.2
				c0,3.4,2.8,6.2,6.2,6.2c3.4,0,6.2-2.8,6.2-6.2c0-0.7-0.1-1.3-0.3-1.9c0.6,0.1,1.3-0.1,1.7-0.6l49.9-49.9h148.7l21.7,21.7
				c0.4,0.4,0.9,0.6,1.5,0.6H42.6l17.8,17.8c0.4,0.4,0.9,0.6,1.5,0.6h33.3c1.2,0-1.4-1-1.4-2.1C93.9,346.9,96.4,345.9,95.2,345.9z
				 M-320.7,366.6c-2.7,0-4.8-2.2-4.8-4.8c0-2.7,2.2-4.8,4.8-4.8c2.7,0,4.8,2.2,4.8,4.8C-315.8,364.4-318,366.6-320.7,366.6z"/>
			<path class="st1" d="M145.7,394.9c-3.2,0-5.8,2.4-6.2,5.5H-52.1l-73.6-73.6c-0.1-0.1-0.3-0.2-0.5-0.2h-133.2
				c-0.2,0-0.4,0.1-0.5,0.2l-24.2,24.2c-1-0.7-2.2-1.1-3.5-1.1c-3.4,0-6.2,2.8-6.2,6.2c0,3.4,2.8,6.2,6.2,6.2c3.4,0,6.2-2.8,6.2-6.2
				c0-1.6-0.6-3.1-1.6-4.2l23.9-23.9h132.7l73.6,73.6c0.1,0.1,0.3,0.2,0.5,0.2h191.9c0.4,3.1,3,5.5,6.2,5.5c3.4,0,6.2-2.8,6.2-6.2
				C151.9,397.7,149.1,394.9,145.7,394.9z M-287.7,361c-2.7,0-4.8-2.2-4.8-4.8c0-2.7,2.2-4.8,4.8-4.8c1,0,2,0.3,2.8,0.9
				c0,0.1,0.1,0.3,0.2,0.4c0.1,0.1,0.3,0.2,0.5,0.2c0.8,0.9,1.4,2,1.4,3.3C-282.9,358.8-285,361-287.7,361z M145.7,406
				c-2.4,0-4.4-1.8-4.8-4.1h0.3c0.4,0,0.7-0.3,0.7-0.7c0-0.4-0.3-0.7-0.7-0.7h-0.3c0.3-2.3,2.3-4.1,4.8-4.1c2.7,0,4.8,2.2,4.8,4.8
				C150.5,403.8,148.3,406,145.7,406z"/>
			<path class="st1" d="M127.7,376.4c-2.8,0-5.2,1.9-6,4.5h-137l-22.5-22.5c1.3-1.1,2.2-2.8,2.2-4.7c0-3.4-2.8-6.2-6.2-6.2
				c-3.4,0-6.2,2.8-6.2,6.2c0,3.4,2.8,6.2,6.2,6.2c1,0,2-0.3,2.9-0.7l22.9,22.9c0.1,0.1,0.3,0.2,0.5,0.2h137c0,0.1,0,0.2,0,0.3
				c0,3.4,2.8,6.2,6.2,6.2c3.4,0,6.2-2.8,6.2-6.2C134,379.2,131.2,376.4,127.7,376.4z M-46.6,353.7c0-2.7,2.2-4.8,4.8-4.8
				c2.7,0,4.8,2.2,4.8,4.8c0,1.5-0.7,2.8-1.8,3.7c0,0-1.4,0.5-1.2,0.8c-0.6,0.2-1.2,0.4-1.8,0.4C-44.4,358.5-46.6,356.3-46.6,353.7z
				 M127.7,387.4c-2.7,0-4.8-2.2-4.8-4.8c0-0.3,0-0.5,0.1-0.8c0-0.1,0.1-0.2,0.1-0.3c0,0,0,0,0,0c0.5-2.1,2.4-3.8,4.7-3.8
				c2.7,0,4.8,2.2,4.8,4.8S130.4,387.4,127.7,387.4z"/>
			<g>
				<path class="st1" d="M100.8,339.2c4.9,0,8.8,4,8.8,8.8c0,4.9-4,8.8-8.8,8.8c-4.9,0-8.8-4-8.8-8.8
					C92,343.2,95.9,339.2,100.8,339.2z M102.2,352.6c2.5,0,3.1-2,3.1-4.6c0-2.5-2-4.6-4.6-4.6c-2.5,0-4.6,2-4.6,4.6
					C96.2,350.5,99.7,352.6,102.2,352.6z"/>
			</g>
		</g>
		<g class="st2">
			<path class="st1" d="M142.6,65.4V44l19.6,10.3L142.6,65.4z M144.2,46.7v16l14.7-8.3L144.2,46.7z"/>
		</g>
		<g>
			<g class="st2">
				<polygon class="st1" points="-27.3,398.2 -27.8,398.7 -64.9,361.3 -64.3,360.8 				"/>
			</g>
			<g class="st2">
				<path class="st1" d="M-23,375.8c0,1.8-1.5,3.3-3.3,3.3s-3.3-1.5-3.3-3.3c0-1.8,1.5-3.3,3.3-3.3S-23,374-23,375.8z M-28.8,375.8
					c0,1.4,1.1,2.6,2.5,2.6c1.4,0,2.5-1.1,2.5-2.6c0-1.4-1.1-2.6-2.5-2.6C-27.6,373.3-28.8,374.4-28.8,375.8z"/>
			</g>
		</g>
	</g>
</g>
</svg>
