<svg width="77" height="73" viewBox="0 0 77 73" fill="none" xmlns="http://www.w3.org/2000/svg">
<path opacity="0.3" d="M72.9463 70.5048C72.9463 69.5287 73.79 68.7028 74.7872 68.7028C75.7844 68.7028 76.6281 69.5287 76.6281 70.5048C76.6281 71.4809 75.7844 72.3068 74.7872 72.3068C73.79 72.3068 72.9463 71.4809 72.9463 70.5048Z" fill="white"/>
<path opacity="0.2" d="M54.7671 70.5048C54.7671 69.5287 55.6108 68.7028 56.608 68.7028C57.6052 68.7028 58.4489 69.5287 58.4489 70.5048C58.4489 71.4809 57.6052 72.3068 56.608 72.3068C55.5341 72.3068 54.7671 71.4809 54.7671 70.5048Z" fill="white"/>
<path opacity="0.1" d="M36.5116 70.5048C36.5116 69.5287 37.3553 68.7028 38.3525 68.7028C39.3497 68.7028 40.1934 69.5287 40.1934 70.5048C40.1934 71.4809 39.3497 72.3068 38.3525 72.3068C37.3553 72.3068 36.5116 71.4809 36.5116 70.5048Z" fill="white"/>
<path opacity="0.4" d="M72.9463 60.6687C72.9463 59.6926 73.79 58.8667 74.7872 58.8667C75.7844 58.8667 76.6281 59.6926 76.6281 60.6687C76.6281 61.6448 75.7844 62.4708 74.7872 62.4708C73.79 62.5459 72.9463 61.7199 72.9463 60.6687Z" fill="white"/>
<path opacity="0.3" d="M54.7671 60.6687C54.7671 59.6926 55.6108 58.8667 56.608 58.8667C57.6052 58.8667 58.4489 59.6926 58.4489 60.6687C58.4489 61.6448 57.6052 62.4708 56.608 62.4708C55.5341 62.5459 54.7671 61.7199 54.7671 60.6687Z" fill="white"/>
<path opacity="0.2" d="M38.3525 62.4708C39.3692 62.4708 40.1934 61.664 40.1934 60.6687C40.1934 59.6735 39.3692 58.8667 38.3525 58.8667C37.3358 58.8667 36.5116 59.6735 36.5116 60.6687C36.5116 61.664 37.3358 62.4708 38.3525 62.4708Z" fill="white"/>
<path opacity="0.1" d="M20.0968 62.4708C21.1135 62.4708 21.9377 61.664 21.9377 60.6687C21.9377 59.6735 21.1135 58.8667 20.0968 58.8667C19.0801 58.8667 18.2559 59.6735 18.2559 60.6687C18.2559 61.664 19.0801 62.4708 20.0968 62.4708Z" fill="white"/>
<path opacity="0.5" d="M72.9463 50.9076C72.9463 49.9315 73.79 49.1056 74.7872 49.1056C75.7844 49.1056 76.6281 49.9315 76.6281 50.9076C76.6281 51.8837 75.7844 52.7097 74.7872 52.7097C73.79 52.7097 72.9463 51.8837 72.9463 50.9076Z" fill="white"/>
<path opacity="0.4" d="M54.7671 50.9076C54.7671 49.9315 55.6108 49.1056 56.608 49.1056C57.6052 49.1056 58.4489 49.9315 58.4489 50.9076C58.4489 51.8837 57.6052 52.7097 56.608 52.7097C55.5341 52.7097 54.7671 51.8837 54.7671 50.9076Z" fill="white"/>
<path opacity="0.3" d="M36.5116 50.9076C36.5116 49.9315 37.3553 49.1056 38.3525 49.1056C39.3497 49.1056 40.1934 49.9315 40.1934 50.9076C40.1934 51.8837 39.3497 52.7097 38.3525 52.7097C37.3553 52.7097 36.5116 51.8837 36.5116 50.9076Z" fill="white"/>
<path opacity="0.2" d="M18.2559 50.9076C18.2559 49.9315 19.0996 49.1056 20.0968 49.1056C21.0939 49.1056 21.9377 49.9315 21.9377 50.9076C21.9377 51.8837 21.0939 52.7097 20.0968 52.7097C19.0996 52.7097 18.2559 51.8837 18.2559 50.9076Z" fill="white"/>
<path opacity="0.1" d="M0 50.9076C0 49.9315 0.843752 49.1056 1.84091 49.1056C2.83808 49.1056 3.68183 49.9315 3.68183 50.9076C3.68183 51.8837 2.83808 52.7097 1.84091 52.7097C0.843752 52.7097 0 51.8837 0 50.9076Z" fill="white"/>
<path opacity="0.6" d="M72.9463 41.0716C72.9463 40.0955 73.79 39.2695 74.7872 39.2695C75.7844 39.2695 76.6281 40.0955 76.6281 41.0716C76.6281 42.0477 75.7844 42.8736 74.7872 42.8736C73.79 42.8736 72.9463 42.0477 72.9463 41.0716Z" fill="white"/>
<path opacity="0.5" d="M54.7671 41.0716C54.7671 40.0955 55.6108 39.2695 56.608 39.2695C57.6052 39.2695 58.4489 40.0955 58.4489 41.0716C58.4489 42.0477 57.6052 42.8736 56.608 42.8736C55.5341 42.8736 54.7671 42.0477 54.7671 41.0716Z" fill="white"/>
<path opacity="0.4" d="M38.3525 42.8736C39.3692 42.8736 40.1934 42.0668 40.1934 41.0716C40.1934 40.0763 39.3692 39.2695 38.3525 39.2695C37.3358 39.2695 36.5116 40.0763 36.5116 41.0716C36.5116 42.0668 37.3358 42.8736 38.3525 42.8736Z" fill="white"/>
<path opacity="0.3" d="M20.0968 42.8736C21.1135 42.8736 21.9377 42.0668 21.9377 41.0716C21.9377 40.0763 21.1135 39.2695 20.0968 39.2695C19.0801 39.2695 18.2559 40.0763 18.2559 41.0716C18.2559 42.0668 19.0801 42.8736 20.0968 42.8736Z" fill="white"/>
<path opacity="0.2" d="M0 41.0716C0 40.0955 0.843752 39.2695 1.84091 39.2695C2.83808 39.2695 3.68183 40.0955 3.68183 41.0716C3.68183 42.0477 2.83808 42.8736 1.84091 42.8736C0.843752 42.8736 0 42.0477 0 41.0716Z" fill="white"/>
<path opacity="0.7" d="M72.9463 31.2354C72.9463 30.2593 73.79 29.4333 74.7872 29.4333C75.7844 29.4333 76.6281 30.2593 76.6281 31.2354C76.6281 32.2115 75.7844 33.0374 74.7872 33.0374C73.79 33.1125 72.9463 32.2866 72.9463 31.2354Z" fill="white"/>
<path opacity="0.6" d="M54.7671 31.2354C54.7671 30.2593 55.6108 29.4333 56.608 29.4333C57.6052 29.4333 58.4489 30.2593 58.4489 31.2354C58.4489 32.2115 57.6052 33.0374 56.608 33.0374C55.5341 33.1125 54.7671 32.2866 54.7671 31.2354Z" fill="white"/>
<path opacity="0.5" d="M36.5116 31.2354C36.5116 30.2593 37.3553 29.4333 38.3525 29.4333C39.3497 29.4333 40.1934 30.2593 40.1934 31.2354C40.1934 32.2115 39.3497 33.0374 38.3525 33.0374C37.3553 33.1125 36.5116 32.2866 36.5116 31.2354Z" fill="white"/>
<path opacity="0.4" d="M18.2559 31.2354C18.2559 30.2593 19.0996 29.4333 20.0968 29.4333C21.0939 29.4333 21.9377 30.2593 21.9377 31.2354C21.9377 32.2115 21.0939 33.0374 20.0968 33.0374C19.0996 33.1125 18.2559 32.2866 18.2559 31.2354Z" fill="white"/>
<path opacity="0.3" d="M0 31.2354C0 30.2593 0.843752 29.4333 1.84091 29.4333C2.83808 29.4333 3.68183 30.2593 3.68183 31.2354C3.68183 32.2115 2.83808 33.0374 1.84091 33.0374C0.843752 33.1125 0 32.2866 0 31.2354Z" fill="white"/>
<path opacity="0.8" d="M72.9463 21.4742C72.9463 20.4981 73.79 19.6721 74.7872 19.6721C75.7844 19.6721 76.6281 20.4981 76.6281 21.4742C76.6281 22.4503 75.7844 23.2762 74.7872 23.2762C73.79 23.2762 72.9463 22.4503 72.9463 21.4742Z" fill="white"/>
<path opacity="0.7" d="M54.7671 21.4742C54.7671 20.4981 55.6108 19.6721 56.608 19.6721C57.6052 19.6721 58.4489 20.4981 58.4489 21.4742C58.4489 22.4503 57.6052 23.2762 56.608 23.2762C55.5341 23.2762 54.7671 22.4503 54.7671 21.4742Z" fill="white"/>
<path opacity="0.6" d="M36.5116 21.4742C36.5116 20.4981 37.3553 19.6721 38.3525 19.6721C39.3497 19.6721 40.1934 20.4981 40.1934 21.4742C40.1934 22.4503 39.3497 23.2762 38.3525 23.2762C37.3553 23.2762 36.5116 22.4503 36.5116 21.4742Z" fill="white"/>
<path opacity="0.5" d="M18.2559 21.4742C18.2559 20.4981 19.0996 19.6721 20.0968 19.6721C21.0939 19.6721 21.9377 20.4981 21.9377 21.4742C21.9377 22.4503 21.0939 23.2762 20.0968 23.2762C19.0996 23.2762 18.2559 22.4503 18.2559 21.4742Z" fill="white"/>
<path opacity="0.4" d="M0 21.4742C0 20.4981 0.843752 19.6721 1.84091 19.6721C2.83808 19.6721 3.68183 20.4981 3.68183 21.4742C3.68183 22.4503 2.83808 23.2762 1.84091 23.2762C0.843752 23.2762 0 22.4503 0 21.4742Z" fill="white"/>
<path opacity="0.9" d="M72.9463 11.6382C72.9463 10.6621 73.79 9.83618 74.7872 9.83618C75.7844 9.83618 76.6281 10.6621 76.6281 11.6382C76.6281 12.6143 75.7844 13.4403 74.7872 13.4403C73.79 13.4403 72.9463 12.6143 72.9463 11.6382Z" fill="white"/>
<path opacity="0.8" d="M54.7671 11.6382C54.7671 10.6621 55.6108 9.83618 56.608 9.83618C57.6052 9.83618 58.4489 10.6621 58.4489 11.6382C58.4489 12.6143 57.6052 13.4403 56.608 13.4403C55.5341 13.4403 54.7671 12.6143 54.7671 11.6382Z" fill="white"/>
<path opacity="0.7" d="M38.3525 13.4403C39.3692 13.4403 40.1934 12.6335 40.1934 11.6382C40.1934 10.643 39.3692 9.83618 38.3525 9.83618C37.3358 9.83618 36.5116 10.643 36.5116 11.6382C36.5116 12.6335 37.3358 13.4403 38.3525 13.4403Z" fill="white"/>
<path opacity="0.6" d="M20.0968 13.4403C21.1135 13.4403 21.9377 12.6335 21.9377 11.6382C21.9377 10.643 21.1135 9.83618 20.0968 9.83618C19.0801 9.83618 18.2559 10.643 18.2559 11.6382C18.2559 12.6335 19.0801 13.4403 20.0968 13.4403Z" fill="white"/>
<path opacity="0.5" d="M0 11.6382C0 10.6621 0.843752 9.83618 1.84091 9.83618C2.83808 9.83618 3.68183 10.6621 3.68183 11.6382C3.68183 12.6143 2.83808 13.4403 1.84091 13.4403C0.843752 13.4403 0 12.6143 0 11.6382Z" fill="white"/>
<path d="M72.9463 1.80204C72.9463 0.825936 73.79 0 74.7872 0C75.7844 0 76.6281 0.825936 76.6281 1.80204C76.6281 2.77815 75.7844 3.60408 74.7872 3.60408C73.79 3.67917 72.9463 2.85323 72.9463 1.80204Z" fill="white"/>
<path opacity="0.9" d="M54.7671 1.80204C54.7671 0.825936 55.6108 0 56.608 0C57.6052 0 58.4489 0.825936 58.4489 1.80204C58.4489 2.77815 57.6052 3.60408 56.608 3.60408C55.5341 3.67917 54.7671 2.85323 54.7671 1.80204Z" fill="white"/>
<path opacity="0.8" d="M36.5116 1.80204C36.5116 0.825936 37.3553 0 38.3525 0C39.3497 0 40.1934 0.825936 40.1934 1.80204C40.1934 2.77815 39.3497 3.60408 38.3525 3.60408C37.3553 3.67917 36.5116 2.85323 36.5116 1.80204Z" fill="white"/>
<path opacity="0.7" d="M18.2559 1.80204C18.2559 0.825936 19.0996 0 20.0968 0C21.0939 0 21.9377 0.825936 21.9377 1.80204C21.9377 2.77815 21.0939 3.60408 20.0968 3.60408C19.0996 3.67917 18.2559 2.85323 18.2559 1.80204Z" fill="white"/>
<path opacity="0.6" d="M0.00012207 1.80204C0.00012207 0.825936 0.843874 0 1.84104 0C2.8382 0 3.68195 0.825936 3.68195 1.80204C3.68195 2.77815 2.8382 3.60408 1.84104 3.60408C0.843874 3.67917 0.00012207 2.85323 0.00012207 1.80204Z" fill="white"/>
</svg>
